# xmcd CD database file
#
# Track frame offsets:
#	150
#	15080
#	35247
#	50175
#
# Disc length: 934 seconds
#
# Revision: 0
# Processed by: cddbd v1.5PL3 Copyright (c) Steve Scherf et al.
# Submitted via: CDex 1.50
#
DISCID=2d03a404
DTITLE=HIROMI - エースをねらえ！
DYEAR=2004
DGENRE=JPop
TTITLE0=エースをねらえ！
TTITLE1=eternity
TTITLE2=エースをねらえ！ (instrumental)
TTITLE3=eternity (instrumental)
EXTD=YEAR: 2004
EXTT0=
EXTT1=
EXTT2=
EXTT3=
PLAYORDER=
